<svg version="1.1" xmlns="http://www.w3.org/2000/svg" xmlns:xlink="http://www.w3.org/1999/xlink" width="255.98129" height="141.99143" viewBox="0,0,255.98129,141.99143"><defs><radialGradient cx="179.54978" cy="319.29121" r="126.71645" gradientUnits="userSpaceOnUse" id="color-1"><stop offset="0" stop-color="#000000" stop-opacity="0"/><stop offset="1" stop-color="#000000" stop-opacity="0.23529"/></radialGradient><linearGradient x1="303.56459" y1="268.53114" x2="303.56459" y2="374.53114" gradientUnits="userSpaceOnUse" id="color-2"><stop offset="0" stop-color="#7a522c"/><stop offset="1" stop-color="#604323"/></linearGradient><linearGradient x1="56.36908" y1="268.42857" x2="56.36908" y2="374.42857" gradientUnits="userSpaceOnUse" id="color-3"><stop offset="0" stop-color="#7a522c"/><stop offset="1" stop-color="#604323"/></linearGradient></defs><g transform="translate(-51.97619,-248.55244)"><g data-paper-data="{&quot;isPaintingLayer&quot;:true}" fill-rule="nonzero" stroke-width="0" stroke-linecap="butt" stroke-linejoin="miter" stroke-miterlimit="10" stroke-dasharray="" stroke-dashoffset="0" style="mix-blend-mode: normal"><path d="M52.83333,388.91575v-139.24909h253.4329v139.24909z" fill="url(#color-1)" stroke="none"/><g fill="#704a29"><path d="M305.85361,390.49176c0,0 -1.28246,-14.69357 -2.34943,-16.94893c-1.17503,-2.48378 -3.73247,-3.5974 -3.73247,-3.5974l-0.6,-101.41428h8.78577v122z" data-paper-data="{&quot;index&quot;:null}" stroke="url(#color-2)"/><path d="M51.97619,390.42858v-122h8.78577v103.71428c0,0 -3.15744,-1.18637 -4.33247,1.2974c-1.06697,2.25537 -2.34943,16.94893 -2.34943,16.94893z" stroke="url(#color-3)"/><g data-paper-data="{&quot;index&quot;:null}" stroke="none"><path d="M307.84436,390.14401h-8.70511v-3.70835c2.60792,-0.65654 4.44557,-1.61058 4.44557,-4.53758c0,-0.53761 0.33464,-2.45926 0.21175,-2.95674c0.15565,-0.59644 -0.34543,-1.8188 -0.9263,-2.53283c-0.56139,-1.17977 -0.77127,-0.94651 -1.98884,-2.5531c-0.26664,-0.4015 -1.48322,-1.98708 -1.84218,-2.53051l0.1,-16.77246c1.87094,0.22348 3.76216,0.47478 5.57822,0.48676c0.87176,0.00052 1.96748,0.10186 3.12689,0.19125z"/><path d="M286.53775,378.97861c1.33609,1.6466 6.29707,5.1178 6.82761,5.55906c0.29012,0.2413 2.57166,2.40319 4.47719,2.07049c2.96256,0 5.31878,-2.26572 5.76862,-5.22955h4.23318v9.09745h-88.24264c0,-2.39332 0,-4.78664 0,-7.17996c0,-0.64068 -0.01789,-1.27992 -0.04607,-1.91751z"/></g><g data-paper-data="{&quot;index&quot;:null}" stroke="none"><path d="M52.35564,355.23046c1.15941,-0.08939 2.25513,-0.19073 3.12689,-0.19125c1.81606,-0.01198 3.70728,-0.26329 5.57822,-0.48676l-0.85715,16.35818c-0.35896,0.54343 0.03875,2.02901 -0.22789,2.43051c-1.11757,0.60659 -1.88461,2.28761 -2.446,3.46738c-0.58087,0.71403 -0.98195,1.43639 -0.8263,2.03283c-0.12288,0.49747 -0.18825,1.01913 -0.18825,1.55674c0,2.927 1.93765,5.38104 4.54557,6.03758v3.70835h-8.70511z"/><path d="M140.64436,381.37861c-0.02819,0.63759 -0.04607,1.27683 -0.04607,1.91751c0,2.39332 0,4.78664 0,7.17996h-88.24265v-9.09745h4.23318c0.44984,2.96383 2.90606,5.22955 5.86862,5.22955c0.90553,0.73269 4.38708,-1.32919 4.67719,-1.57049c0.53054,-0.44126 2.39153,-2.01246 3.72761,-3.65906z"/></g><g data-paper-data="{&quot;index&quot;:null}" stroke="none"><path d="M307.95543,283.79805c-1.15941,0.08939 -2.25513,0.19074 -3.12689,0.19125c-1.81606,0.01198 -3.70728,0.26329 -5.57822,0.48676l-0.25,-16.57246c0.35896,-0.54343 0.92554,-2.02901 1.19218,-2.4305c1.11757,-0.60659 2.02746,-2.07333 2.58884,-3.2531c0.58087,-0.71403 0.98195,-1.43639 0.8263,-2.03283c0.12288,-0.49747 0.18825,-1.01913 0.18825,-1.55674c0,-2.927 -1.93765,-5.38104 -4.54557,-6.03758v-3.70835h8.70511z"/><path d="M219.66671,257.64991c0.02819,-0.63759 0.04607,-1.27683 0.04607,-1.91751c0,-2.39332 0,-4.78664 0,-7.17996h88.24264v9.09745h-4.23318c-0.44984,-2.96382 -2.90606,-5.22955 -5.86862,-5.22955c-0.90553,-0.73269 -4.13708,1.45419 -4.42719,1.69549c-0.53054,0.44127 -2.51653,1.88746 -3.85261,3.53407z"/></g><g stroke="none"><path d="M52.00004,248.88452h8.70512v3.70835c-2.60792,0.65654 -4.54557,3.11058 -4.54557,6.03758c0,0.53761 0.06536,1.05925 0.18825,1.55673c-0.15565,0.59644 0.24543,1.3188 0.8263,2.03283c0.56139,1.17977 1.47127,2.1465 2.58884,2.75309c0.26664,0.40149 0.58322,0.88707 0.94218,1.43051v18.07246c-1.87094,-0.22348 -3.76217,-0.47479 -5.57822,-0.48676c-0.87177,-0.00052 -1.96748,-0.10186 -3.12689,-0.19125z"/><path d="M70.50666,257.64991c-1.33608,-1.6466 -3.19707,-3.2178 -3.72761,-3.65907c-0.29011,-0.2413 -3.77167,-2.30318 -4.6772,-1.57049c-2.96257,0 -5.41878,2.26572 -5.86862,5.22955h-4.23318v-9.09745h88.24264c0,2.39332 0,4.78664 0,7.17996c0,0.64068 0.01789,1.27992 0.04607,1.91751z"/></g><path d="M242.81382,383.21912c0.06193,0.84271 0.10284,1.68946 0.10284,2.54387c0,1.59363 0,3.18725 0,4.78088h-117.5c0,-1.92696 0,-3.85392 0,-5.78088c0,-0.51605 0.01564,-1.03069 0.04027,-1.54387h48.13162c0.68125,2.74948 3.53459,4.79387 6.59798,4.79387c3.06341,0 6.0596,-2.0444 6.74084,-4.79387z" data-paper-data="{&quot;index&quot;:null}" stroke="none"/><path d="M186.87382,255.8772c-0.68124,-2.74947 -3.62387,-4.79387 -6.68727,-4.79387c-3.0634,0 -6.00602,2.04439 -6.68727,4.79387h-48.04234c-0.02463,-0.51317 -0.04027,-1.02781 -0.04027,-1.54386c0,-1.92696 0,-3.85392 0,-5.78088h117.5c0,1.59363 0,3.18726 0,4.78088c0,0.85441 -0.04091,1.70115 -0.10285,2.54386z" data-paper-data="{&quot;index&quot;:null}" stroke="none"/></g><g fill="#10945d" stroke="none"><path d="M59.66672,373.81888v-109.04278l5,5.26413v98.26385z"/><path d="M295.91672,368.30408v-98.26385l5,-5.26413v109.04278z" data-paper-data="{&quot;index&quot;:null}"/><path d="M68.79172,255.8772h104.75l-1.88743,5.01346h-97.01572z"/><path d="M286.04173,260.89066h-97.01572l-2.23429,-5.01346h104.75z" data-paper-data="{&quot;index&quot;:null}"/><path d="M74.375,378.20566h97.01572l2.23429,5.01346h-104.75z" data-paper-data="{&quot;index&quot;:null}"/><path d="M291.62501,383.21912h-104.75l1.54057,-5.01346h97.70944z" data-paper-data="{&quot;index&quot;:null}"/></g></g></g></svg>