<svg version="1.1" xmlns="http://www.w3.org/2000/svg" xmlns:xlink="http://www.w3.org/1999/xlink" width="163.83956" height="55.88143" viewBox="0,0,163.83956,55.88143"><g transform="translate(-97.96723,-291.61199)"><g data-paper-data="{&quot;isPaintingLayer&quot;:true}" fill-rule="nonzero" stroke="#ffffff" stroke-linecap="butt" stroke-linejoin="miter" stroke-miterlimit="10" stroke-dasharray="" stroke-dashoffset="0" style="mix-blend-mode: normal"><path d="M228.1237,295.42633c0.32066,-0.06984 0.55084,-0.06984 0.55084,-0.06984l1.04531,0.03402c7.1866,-1.17786 13.98283,1.03229 21.07858,0.45994c2.91323,-0.23499 4.94855,-1.55799 7.49352,1.40937c0.52126,0.60778 1.33184,6.07003 1.51484,7.18659c0.0033,4.35311 0.81955,8.62593 0.48767,13.00478c-0.23455,3.09468 -0.732,6.16629 -0.9731,9.25228c-0.2101,2.68936 0.98855,8.65801 -0.42131,10.90411c-1.56711,2.49661 -7.3636,2.58822 -9.9116,3.00616c-2.7671,0.45388 -5.01509,1.92269 -7.70522,2.41609c-4.97502,0.91248 -10.26825,-0.31911 -15.31511,0.52203c-26.57978,0.06281 -53.02942,2.49812 -79.61165,2.42718c-6.0218,1.00363 -11.37691,-0.10943 -17.35184,-0.48175c-4.51552,-0.28138 -8.87308,0.22718 -13.36245,-0.51462c-2.85059,-0.47102 -7.38358,-0.48868 -9.6092,-2.63997c-0.37455,-0.36204 -2.2182,-4.92151 -2.52144,-5.76224c-2.53695,-7.03377 -2.50139,-15.13816 -3.54431,-22.52733c-0.01099,-5.39527 -1.77133,-14.58464 2.81453,-18.58539c3.26405,-2.84759 9.81715,-1.57088 13.75685,-1.56756c13.22118,0.01115 26.53319,0.48544 39.80583,0.48544c23.84277,0 48.01902,-1.1735 71.77926,1.04072z" data-paper-data="{&quot;index&quot;:null}" fill="#ff01dc" stroke-width="4"/><text transform="translate(115.30605,328.37164) scale(0.70843,0.70843)" font-size="40" xml:space="preserve" fill="#ffffff" fill-rule="nonzero" stroke="#ffffff" stroke-width="2" stroke-linecap="butt" stroke-linejoin="miter" stroke-miterlimit="10" stroke-dasharray="" stroke-dashoffset="0" font-family="Handwriting" font-weight="normal" text-anchor="start" style="mix-blend-mode: normal"><tspan x="0" dy="0">OPTIONS</tspan></text></g></g></svg>