<svg version="1.1" xmlns="http://www.w3.org/2000/svg" xmlns:xlink="http://www.w3.org/1999/xlink" width="48.32342" height="38.4613" viewBox="0,0,48.32342,38.4613"><g transform="translate(-155.18461,-300.76935)"><g data-paper-data="{&quot;isPaintingLayer&quot;:true}" fill-rule="nonzero" stroke-linecap="butt" stroke-linejoin="miter" stroke-miterlimit="10" stroke-dasharray="" stroke-dashoffset="0" style="mix-blend-mode: normal"><path d="M166.05832,307.93869c6.55495,-1.18108 13.22466,-0.55512 19.80236,-0.55512c3.66164,0 7.33414,-0.25299 10.98158,-0.25894c1.08688,-0.00178 2.89475,-0.68278 3.79522,0.83613c1.26514,2.13402 0.77951,7.03569 0.77647,9.91356c-0.28772,3.94143 -0.27791,8.26436 -0.97779,12.01621c-0.08366,0.44845 -0.59227,2.88049 -0.69561,3.07361c-0.614,1.14751 -1.86456,1.15693 -2.65098,1.40817c-1.23852,0.39568 -2.44068,0.12442 -3.68641,0.2745c-1.64836,0.1986 -3.12571,0.79231 -4.787,0.25697c-7.33346,0.03785 -14.63037,-1.26117 -21.96316,-1.29466c-1.39233,-0.44867 -2.85261,0.20826 -4.22512,-0.27845c-0.74215,-0.26318 -1.36233,-1.04666 -2.12571,-1.28877c-0.70294,-0.22293 -2.30206,-0.27179 -2.7344,-1.6035c-0.38895,-1.19808 -0.05827,-4.38179 -0.11623,-5.81632c-0.06652,-1.64608 -0.20375,-3.2845 -0.26846,-4.93522c-0.09156,-2.33571 0.13363,-4.61484 0.13454,-6.93682c0.05048,-0.59559 0.27411,-3.50918 0.41791,-3.83337c0.7021,-1.5828 1.2636,-0.8771 2.0673,-0.75176c1.95756,0.30529 3.8325,-0.87361 5.81513,-0.24534l0.28838,-0.01815c0,0 0.0635,0 0.15196,0.03725z" fill="#ce2e2e" stroke="#ffffff" stroke-width="4"/><path d="M189.90983,310.88607c-2.1869,2.79326 -4.60549,5.47874 -6.94821,8.23711c0.75778,1.52839 1.39203,2.94647 1.88162,4.09023c0.75624,1.76668 5.46232,9.88952 4.98911,11.47034c-3.35785,11.21731 -8.62136,-1.43321 -10.19758,-4.80886c-0.62925,-1.34763 -1.19892,-2.77963 -1.79381,-4.19068c-0.37568,0.5468 -0.74085,1.10072 -1.09358,1.66291c-1.7956,2.86183 -4.88595,11.39013 -8.84667,9.18493c-3.54311,-1.9727 -1.52303,-6.36973 -0.33134,-9.03037c1.53678,-3.43111 3.69779,-6.51382 6.07802,-9.4261c-0.82565,-1.10396 -1.74652,-2.11314 -2.80874,-2.9495c-0.73202,-0.57637 -3.85077,-1.59023 -3.91012,-2.77957l-0.5973,-2.25164c1.05632,-1.26012 1.67696,-3.57965 3.05209,-4.07443c0.14412,-0.05186 0.29653,-0.08366 0.4586,-0.09212c3.33498,-0.17388 6.43158,2.63659 9.00305,6.20352c1.46867,-1.62934 2.91466,-3.24284 4.25467,-4.87707c0.91414,-1.11483 5.10337,-7.19132 6.71022,-6.41758c0.13544,-0.01665 0.27308,-0.02519 0.4125,-0.02519c2.0537,0 3.71856,1.85389 3.71856,4.14076c1.03587,1.73075 -3.53791,5.30337 -4.03108,5.93327z" fill="#ffffff" stroke="none" stroke-width="0.5"/></g></g></svg>