<svg version="1.1" xmlns="http://www.w3.org/2000/svg" xmlns:xlink="http://www.w3.org/1999/xlink" width="166.25522" height="45.45757" viewBox="0,0,166.25522,45.45757"><g transform="translate(-100.07225,-296.69529)"><g data-paper-data="{&quot;isPaintingLayer&quot;:true}" fill-rule="nonzero" stroke="#ffffff" stroke-linecap="butt" stroke-linejoin="miter" stroke-miterlimit="10" stroke-dasharray="" stroke-dashoffset="0" style="mix-blend-mode: normal"><path d="M134.55364,300.16014c23.99625,-1.78768 48.41264,-0.84024 72.49223,-0.84024c13.40447,0 26.84871,-0.38293 40.20121,-0.39193c3.97884,-0.00268 10.59702,-1.03345 13.89349,1.26558c4.63141,3.23006 2.85358,10.64922 2.84249,15.00516c-1.05328,5.96575 -1.01737,12.50894 -3.57952,18.18774c-0.30625,0.67877 -2.1682,4.35992 -2.54648,4.65222c-2.24772,1.73688 -6.82574,1.75113 -9.70465,2.13142c-4.53396,0.5989 -8.93481,0.18831 -13.49518,0.41548c-6.03428,0.3006 -11.44258,1.19924 -17.52419,0.38895c-26.84626,0.05728 -53.55862,-1.90891 -80.40242,-1.95961c-5.09699,-0.67911 -10.44279,0.31523 -15.46723,-0.42147c-2.71685,-0.39835 -4.98718,-1.58422 -7.78175,-1.95067c-2.57331,-0.33743 -8.42737,-0.41139 -10.01005,-2.42706c-1.42386,-1.81341 -0.21331,-6.63228 -0.42549,-8.80359c-0.2435,-2.49152 -0.74588,-4.97142 -0.98277,-7.46995c-0.33517,-3.53532 0.48919,-6.98504 0.49252,-10.49958c0.18481,-0.90148 1.00344,-5.31149 1.52989,-5.80219c2.57025,-2.39574 4.62578,-1.32759 7.56795,-1.13787c7.16623,0.46209 14.02996,-1.32229 21.28795,-0.37134l1.05569,-0.02747c0,0 0.23246,0 0.55631,0.05638z" fill="#ff01dc" stroke-width="4"/><text transform="translate(114.87667,325.4276) scale(0.51298,0.51298)" font-size="40" xml:space="preserve" fill="#ffffff" fill-rule="nonzero" stroke="#ffffff" stroke-width="2" stroke-linecap="butt" stroke-linejoin="miter" stroke-miterlimit="10" stroke-dasharray="" stroke-dashoffset="0" font-family="Handwriting" font-weight="normal" text-anchor="start" style="mix-blend-mode: normal"><tspan x="0" dy="0">QUICK PLAY...</tspan></text></g></g></svg>