<svg version="1.1" xmlns="http://www.w3.org/2000/svg" xmlns:xlink="http://www.w3.org/1999/xlink" width="17" height="17" viewBox="0,0,17,17"><defs><radialGradient cx="320" cy="180" r="8.5" gradientUnits="userSpaceOnUse" id="color-1"><stop offset="0" stop-color="#000000" stop-opacity="0"/><stop offset="1" stop-color="#000000" stop-opacity="0"/></radialGradient><radialGradient cx="318.91981" cy="180.91615" r="2.42948" gradientUnits="userSpaceOnUse" id="color-2"><stop offset="0" stop-color="#ffffff" stop-opacity="0.39608"/><stop offset="1" stop-color="#ffffff" stop-opacity="0.07059"/></radialGradient><radialGradient cx="321.07436" cy="180.9868" r="6.16159" gradientUnits="userSpaceOnUse" id="color-3"><stop offset="0" stop-color="#000000" stop-opacity="0.61569"/><stop offset="1" stop-color="#000000" stop-opacity="0"/></radialGradient><linearGradient x1="318.12473" y1="176.01383" x2="319.88152" y2="180.8999" gradientUnits="userSpaceOnUse" id="color-4"><stop offset="0" stop-color="#ffffff" stop-opacity="0.54902"/><stop offset="1" stop-color="#ffffff" stop-opacity="0"/></linearGradient></defs><g transform="translate(-311.5,-171.5)"><g data-paper-data="{&quot;isPaintingLayer&quot;:true}" fill-rule="nonzero" stroke-linejoin="miter" stroke-miterlimit="10" stroke-dasharray="" stroke-dashoffset="0" style="mix-blend-mode: normal"><path d="M311.5,188.5v-17h17v17z" fill="url(#color-1)" stroke="none" stroke-width="0" stroke-linecap="butt"/><g><path d="M315.37264,179.92678c0,-2.50499 2.03069,-4.53568 4.53568,-4.53568c2.50499,0 4.53568,2.03069 4.53568,4.53568c0,2.50499 -2.03069,4.53568 -4.53568,4.53568c-2.50499,0 -4.53568,-2.03069 -4.53568,-4.53568z" fill="none" stroke-opacity="0.89412" stroke="#000000" stroke-width="0.5" stroke-linecap="butt"/><path d="M321.28481,183.01489c0,0 -0.31933,0.22512 -0.82048,0.32185c-0.43662,0.08429 -1.0254,0.05699 -1.48039,-0.1207c-0.72229,-0.28207 -1.47475,-1.13211 -1.77425,-1.37172c-0.21329,-0.17062 -0.54933,-0.94829 -0.64104,-1.72859c-0.04954,-0.42157 -0.00859,-0.96927 0.15118,-1.39097c0.14169,-0.37396 0.40186,-0.64886 0.40186,-0.64886" fill="none" stroke="url(#color-2)" stroke-width="1.25" stroke-linecap="round"/><path d="M314.92507,181.12567c0,-0.72741 1.34227,1.67964 3.10596,2.64722c1.7079,0.93698 3.82399,0.43329 4.71692,-0.0989c0.66956,-0.39907 2.22522,-3.01899 1.59581,-5.172c-0.39638,-1.35587 -3.16797,-2.67323 -2.83259,-2.67323c1.44444,0 4.77355,1.70842 5.97107,4.18775c0.71892,1.48845 -0.19385,4.15017 -0.32312,4.37647c-0.71895,1.25856 -3.98988,2.6158 -5.55249,2.6158c-0.04757,0 -1.74791,0.04346 -3.0088,-0.18141c-1.08819,-0.19407 -1.72148,-0.63904 -2.19775,-0.87821c-1.72233,-0.8649 -1.47498,-3.44288 -1.47498,-4.82348z" fill="url(#color-3)" stroke="none" stroke-width="8" stroke-linecap="butt"/></g><path d="M321.43891,177.58108c0.48512,1.34925 -0.21214,2.83514 -1.55739,3.31882c-1.34525,0.48368 -2.82906,-0.218 -3.31418,-1.56725c-0.48512,-1.34925 0.21214,-2.83514 1.55739,-3.31882c1.34525,-0.48368 2.82906,0.218 3.31418,1.56725z" fill="url(#color-4)" stroke-opacity="0.17647" stroke="#ffffff" stroke-width="0" stroke-linecap="butt"/></g></g></svg>