<svg version="1.1" xmlns="http://www.w3.org/2000/svg" xmlns:xlink="http://www.w3.org/1999/xlink" width="96.745" height="33.93474" viewBox="0,0,96.745,33.93474"><g transform="translate(-131.69306,-302.85589)"><g data-paper-data="{&quot;isPaintingLayer&quot;:true}" fill-rule="nonzero" stroke="#ffffff" stroke-linecap="butt" stroke-linejoin="miter" stroke-miterlimit="10" stroke-dasharray="" stroke-dashoffset="0" style="mix-blend-mode: normal"><path d="M152.0768,305.74143c13.7866,-1.28477 27.81458,-0.60387 41.64906,-0.60387c7.70129,0 15.42543,-0.2752 23.09686,-0.28167c2.28596,-0.00193 6.08832,-0.74272 7.98225,0.90956c2.66089,2.32139 1.63947,7.65341 1.6331,10.78395c-0.60514,4.28748 -0.58451,8.98995 -2.05654,13.07121c-0.17595,0.48782 -1.24571,3.1334 -1.46304,3.34347c-1.29139,1.24826 -3.9216,1.25851 -5.57562,1.53181c-2.6049,0.43042 -5.13333,0.13533 -7.7534,0.2986c-3.46688,0.21603 -6.57412,0.86187 -10.0682,0.27953c-15.42402,0.04116 -30.77111,-1.3719 -46.19371,-1.40834c-2.92838,-0.48806 -5.99971,0.22655 -8.88641,-0.3029c-1.56092,-0.28629 -2.86529,-1.13855 -4.47086,-1.40191c-1.47845,-0.2425 -4.84179,-0.29566 -5.75109,-1.74429c-0.81805,-1.30327 -0.12255,-4.76651 -0.24446,-6.32698c-0.1399,-1.79061 -0.42853,-3.57287 -0.56463,-5.36853c-0.19257,-2.54078 0.28105,-5.02003 0.28296,-7.54587c0.10618,-0.64787 0.57651,-3.81728 0.87897,-4.16993c1.47669,-1.72178 2.65766,-0.95412 4.34803,-0.81777c4.11722,0.3321 8.06066,-0.95031 12.2306,-0.26687l0.60653,-0.01974c0,0 0.13356,0 0.31962,0.04052z" fill="#ff01dc" stroke-width="4"/><text transform="translate(151.46437,324.9327) scale(0.41106,0.41106)" font-size="40" xml:space="preserve" fill="#ffffff" fill-rule="nonzero" stroke="#ffffff" stroke-width="2" stroke-linecap="butt" stroke-linejoin="miter" stroke-miterlimit="10" stroke-dasharray="" stroke-dashoffset="0" font-family="Handwriting" font-weight="normal" text-anchor="start" style="mix-blend-mode: normal"><tspan x="0" dy="0">&lt; BACK</tspan></text></g></g></svg>