<svg version="1.1" xmlns="http://www.w3.org/2000/svg" xmlns:xlink="http://www.w3.org/1999/xlink" width="44.45104" height="39.80491" viewBox="0,0,44.45104,39.80491"><g transform="translate(-159.04734,-297.55657)"><g data-paper-data="{&quot;isPaintingLayer&quot;:true}" fill-rule="nonzero" stroke="none" stroke-width="0.5" stroke-linecap="butt" stroke-linejoin="miter" stroke-miterlimit="10" stroke-dasharray="" stroke-dashoffset="0" style="mix-blend-mode: normal"><path d="M184.35204,317.89887c1.18741,0.4018 2.30522,0.76253 3.22306,0.20758c0.55778,-0.33726 0.9999,-2.72269 1.03218,-2.83096c1.00701,-3.37821 1.96498,-5.82227 -2.27063,-5.83641c-1.81967,0.23349 -7.35417,0.64712 -6.1901,3.92016c0.44202,1.24283 2.042,2.73968 2.69395,3.97593l0.58258,-0.2345c0,0 0.62872,0.22978 0.92895,0.79822zM179.60656,318.22177c-0.82116,-1.21871 -2.18457,-2.66259 -2.51668,-3.81308c-1.75403,-6.07622 4.66023,-7.63731 9.05365,-8.19566c1.3651,0.01403 3.51864,-0.13875 4.6885,0.74166c3.30508,2.48731 1.78994,8.60217 0.1878,11.62769c-1.28156,2.42013 -1.92028,2.77321 -4.634,2.77384c-0.31478,0.00008 -4.10302,-1.31027 -4.47175,-0.96013c-2.72021,2.58306 -4.51185,6.94298 -7.66079,9.37422c0,0 -1.29369,0.96826 -2.26196,-0.32544c-0.96826,-1.29369 0.32544,-2.26196 0.32544,-2.26196c2.32007,-1.65868 4.93522,-5.12281 6.56535,-7.47242c0.30648,-0.44176 0.44276,-1.03616 0.72442,-1.48872z" fill="#ffffff"/><path d="M197.71024,326.76728c-0.33522,1.34088 -1.6761,1.00566 -1.6761,1.00566l-0.70176,-0.17593c-0.39196,-0.08773 -2.44384,-0.24307 -3.86833,-0.60868c0.02468,0.04415 0.04647,0.08618 0.06487,0.12527c0.50379,1.07016 0.75272,2.25134 1.28522,3.3075c0,0 0.61812,1.23623 -0.61812,1.85435c-1.23623,0.61812 -1.85435,-0.61812 -1.85435,-0.61812c-0.73227,-1.47522 -3.58171,-6.20948 -2.07613,-7.73403c0.79537,-0.80538 6.5834,0.7361 7.6665,0.97523l0.77253,0.19264c0,0 1.34088,0.33522 1.00566,1.6761z" data-paper-data="{&quot;index&quot;:null}" fill="#ffffff"/><path d="M166.71993,308.19945c0.33522,-1.34088 1.6761,-1.00565 1.6761,-1.00565l0.70176,0.17593c0.39194,0.08772 2.44383,0.24307 3.86833,0.60868c-0.02469,-0.04415 -0.04646,-0.08617 -0.06487,-0.12527c-0.50379,-1.07016 -0.75272,-2.25134 -1.28522,-3.3075c0,0 -0.61812,-1.23623 0.61811,-1.85435c1.23624,-0.61811 1.85435,0.61812 1.85435,0.61812c0.73227,1.47522 3.58171,6.20948 2.07613,7.73403c-0.79538,0.80539 -6.5834,-0.73611 -7.66649,-0.97523l-0.77253,-0.19264c0,0 -1.34088,-0.33522 -1.00566,-1.6761z" data-paper-data="{&quot;index&quot;:null}" fill="#ffffff"/><g><path d="M196.40524,302.10292c3.37039,0.3198 2.91535,2.87069 3.31269,6.03091c0.59391,4.7237 0.1089,9.75227 0.30745,14.51743c0.13476,3.23414 1.08464,7.20139 -0.55241,10.19431c-2.51294,1.70013 -5.54182,1.2587 -8.47605,1.37928c-6.20546,0.255 -12.52716,-0.27914 -18.74977,0.00155c-1.94444,0.0877 -7.7317,0.56464 -7.69703,-1.21448c-2.27994,-7.57724 -2.30841,-16.87043 -2.30841,-24.76414c0,-1.08613 -0.53429,-6.19517 0.23081,-6.49381l1.03471,0.19465c0,0 0.92635,0.08963 1.42393,-0.57824c10.38496,-1.59805 21.0906,-0.21578 31.47408,0.73254z" data-paper-data="{&quot;noHover&quot;:false,&quot;origItem&quot;:[&quot;Path&quot;,{&quot;applyMatrix&quot;:true,&quot;segments&quot;:[[[166.75873,306.9259],[7.81506,-1.20259],[-0.37445,0.50259]],[165.6891,307.35897],[[164.91112,307.21171],[0,0],[-0.57575,0.22475]],[[164.74371,312.08885],[0,-0.81735],[0,5.9403]],[[166.47299,330.67193],[-1.71574,-5.70215],[-0.02609,1.33886]],[[172.25305,331.57643],[-1.46326,0.066],[4.68274,-0.21123]],[[186.31678,331.57607],[-4.66984,0.1919],[2.20812,-0.09074]],[[192.68298,330.54849],[-1.89108,1.27941],[1.23193,-2.25228]],[[193.08927,322.89481],[0.10141,2.43381],[-0.14942,-3.58595]],[[192.86131,312.00377],[0.44694,3.55476],[-0.29901,-2.37818]],[[190.37738,307.47759],[2.53634,0.24066],[-7.81395,-0.71363]]],&quot;closed&quot;:true}]}" fill-opacity="0.5098" fill="#000000"/><path d="M162.40391,298.78472c0.29035,-0.16608 0.55514,-0.21422 0.55514,-0.21422c11.14278,-2.02568 22.53372,-0.55765 33.70036,0.45259c2.8317,0.29504 4.2862,0.48408 5.29145,3.51491c1.55198,4.67923 0.59984,9.81949 0.83494,14.60443c0.28541,5.80897 1.9303,12.47028 -1.02946,17.76417c-4.32728,3.0833 -9.60009,2.42788 -14.71445,2.24405c-5.48788,-0.19725 -11.02301,0.38591 -16.49132,0.15644c-1.72776,-0.0725 -6.67457,0.35501 -8.01778,-0.84687c-0.70258,-0.62866 -0.64212,-1.77286 -0.9632,-2.65929c-2.34648,-7.84388 -2.41015,-17.35691 -2.41015,-25.52572c0,-4.05167 -0.93618,-7.00238 2.6024,-9.52657zM164.9758,301.41452c-0.49758,0.66786 -1.42138,0.57548 -1.42138,0.57548l-1.03381,-0.1957c-0.76508,0.29866 -0.22245,5.39482 -0.22245,6.48093c0,7.8937 0.01799,17.11669 2.29793,24.69392c-0.03467,1.77913 5.73633,1.28965 7.68077,1.20193c6.22261,-0.28069 12.48297,0.25453 18.68843,-0.00049c2.93424,-0.12058 5.9467,0.33465 8.45965,-1.36549c1.63704,-2.99292 0.67465,-6.93635 0.53989,-10.17051c-0.19856,-4.76515 0.29099,-9.74873 -0.30292,-14.47244c-0.39734,-3.16022 0.06963,-5.69477 -3.30074,-6.01456c-10.38348,-0.9483 -21.00041,-2.33117 -31.38537,-0.73311z" fill="#ffffff"/></g></g></g></svg>