<svg version="1.1" xmlns="http://www.w3.org/2000/svg" xmlns:xlink="http://www.w3.org/1999/xlink" width="223.01606" height="45.46529" viewBox="0,0,223.01606,45.46529"><g transform="translate(-68.55415,-296.69529)"><g data-paper-data="{&quot;isPaintingLayer&quot;:true}" fill-rule="nonzero" stroke="#ffffff" stroke-linecap="butt" stroke-linejoin="miter" stroke-miterlimit="10" stroke-dasharray="" stroke-dashoffset="0" style="mix-blend-mode: normal"><path d="M114.39501,300.16014c32.39133,-1.78768 65.34979,-0.84024 97.85362,-0.84024c18.09402,0 36.24172,-0.38293 54.2656,-0.39193c5.37083,-0.00268 14.30438,-1.03345 18.75413,1.26558c6.25171,3.23006 3.8519,10.64922 3.83693,15.00516c-1.42177,5.96575 -1.3733,12.50894 -4.83181,18.18774c-0.41339,0.67877 -2.92675,4.35992 -3.43737,4.65222c-3.03409,1.73688 -9.21373,1.75113 -13.09982,2.13142c-6.12016,0.5989 -12.06065,0.18831 -18.21647,0.41548c-8.14537,0.3006 -15.44576,1.19924 -23.65502,0.38895c-36.23842,0.05728 -72.29609,-1.90891 -108.53119,-1.95961c-6.88017,-0.67911 -14.0962,0.31523 -20.87844,-0.42147c-3.66734,-0.39835 -6.73194,-1.58422 -10.5042,-1.95067c-3.47358,-0.33743 -11.37569,-0.41139 -13.51206,-2.42706c-1.922,-1.81341 -0.28794,-6.63228 -0.57435,-8.80359c-0.32869,-2.49152 -1.00683,-4.97142 -1.32659,-7.46995c-0.45243,-3.53532 0.66033,-6.98504 0.66483,-10.49958c0.24947,-0.90148 1.3545,-5.31149 2.06512,-5.80219c3.46945,-2.39574 6.24411,-1.32759 10.2156,-1.13787c9.67334,0.46209 18.93834,-1.32229 28.73553,-0.37134l1.42502,-0.02747c0,0 0.31379,0 0.75094,0.05638z" fill="#ff01dc" stroke-width="4"/><text transform="translate(81.39166,328.04222) scale(0.55203,0.55203)" font-size="40" xml:space="preserve" fill="#ffffff" fill-rule="nonzero" stroke="#ffffff" stroke-width="2" stroke-linecap="butt" stroke-linejoin="miter" stroke-miterlimit="10" stroke-dasharray="" stroke-dashoffset="0" font-family="Handwriting" font-weight="normal" text-anchor="start" style="mix-blend-mode: normal"><tspan x="0" dy="0">PLAYER V. PLAYER</tspan></text></g></g></svg>