<svg version="1.1" xmlns="http://www.w3.org/2000/svg" xmlns:xlink="http://www.w3.org/1999/xlink" width="164.1806" height="56.48782" viewBox="0,0,164.1806,56.48782"><g transform="translate(-98.19321,-291.90018)"><g data-paper-data="{&quot;isPaintingLayer&quot;:true}" fill-rule="nonzero" stroke="#ffffff" stroke-linecap="butt" stroke-linejoin="miter" stroke-miterlimit="10" stroke-dasharray="" stroke-dashoffset="0" style="mix-blend-mode: normal"><path d="M131.8763,295.42634c23.76024,-2.21422 47.93649,-1.04072 71.77926,-1.04072c13.27264,0 26.58465,-0.47429 39.80583,-0.48544c3.9397,-0.00332 10.4928,-1.28003 13.75685,1.56756c4.58586,4.00075 2.82552,13.19012 2.81453,18.58539c-1.04292,7.38917 -1.00736,15.49356 -3.54431,22.52733c-0.30324,0.84073 -2.14689,5.4002 -2.52144,5.76224c-2.22562,2.15129 -6.75861,2.16895 -9.6092,2.63997c-4.48937,0.7418 -8.84693,0.23324 -13.36245,0.51462c-5.97493,0.37232 -11.33004,1.48538 -17.35184,0.48175c-26.58223,0.07094 -53.03187,-2.36437 -79.61165,-2.42718c-5.04686,-0.84114 -10.34009,0.39045 -15.31511,-0.52203c-2.69013,-0.4934 -4.93812,-1.96221 -7.70522,-2.41609c-2.548,-0.41794 -8.34449,-0.50955 -9.9116,-3.00616c-1.40986,-2.2461 -0.21121,-8.21475 -0.42131,-10.90411c-0.2411,-3.08599 -0.73855,-6.1576 -0.9731,-9.25228c-0.33188,-4.37885 0.48437,-8.65167 0.48767,-13.00478c0.183,-1.11656 0.99358,-6.57881 1.51484,-7.18659c2.54497,-2.96736 4.58029,-1.64436 7.49352,-1.40937c7.09575,0.57235 13.89198,-1.6378 21.07858,-0.45994l1.04531,-0.03402c0,0 0.23018,0 0.55084,0.06984z" fill="#ff01dc" stroke-width="4"/><text transform="translate(129.17223,328.05512) scale(0.67126,0.67126)" font-size="40" xml:space="preserve" fill="#ffffff" fill-rule="nonzero" stroke="#ffffff" stroke-width="2" stroke-linecap="butt" stroke-linejoin="miter" stroke-miterlimit="10" stroke-dasharray="" stroke-dashoffset="0" font-family="Handwriting" font-weight="normal" text-anchor="start" style="mix-blend-mode: normal"><tspan x="0" dy="0">ONLINE</tspan></text></g></g></svg>