<svg version="1.1" xmlns="http://www.w3.org/2000/svg" xmlns:xlink="http://www.w3.org/1999/xlink" width="80.84664" height="45.40156" viewBox="0,0,80.84664,45.40156"><g transform="translate(-139.51497,-296.6953)"><g data-paper-data="{&quot;isPaintingLayer&quot;:true}" fill-rule="nonzero" stroke="#ffffff" stroke-linecap="butt" stroke-linejoin="miter" stroke-miterlimit="10" stroke-dasharray="" stroke-dashoffset="0" style="mix-blend-mode: normal"><path d="M156.93317,300.16014c11.38885,-1.78768 22.97711,-0.84024 34.40551,-0.84024c6.36189,0 12.74266,-0.38293 19.07988,-0.39193c1.8884,-0.00268 5.02945,-1.03345 6.59398,1.26558c2.19811,3.23006 1.35434,10.64922 1.34907,15.00516c-0.4999,5.96575 -0.48285,12.50894 -1.69887,18.18774c-0.14535,0.67877 -1.02905,4.35992 -1.20858,4.65222c-1.06679,1.73688 -3.23956,1.75113 -4.60592,2.13142c-2.15186,0.5989 -4.24055,0.18831 -6.40494,0.41548c-2.86393,0.3006 -5.43076,1.19924 -8.31715,0.38895c-12.74149,0.05728 -25.41944,-1.90891 -38.15977,-1.95961c-2.41908,-0.67911 -4.95625,0.31523 -7.3409,-0.42147c-1.28944,-0.39835 -2.36696,-1.58422 -3.69329,-1.95067c-1.22132,-0.33743 -3.99971,-0.41139 -4.75087,-2.42706c-0.67578,-1.81341 -0.10124,-6.63228 -0.20194,-8.80359c-0.11557,-2.49152 -0.354,-4.97142 -0.46643,-7.46995c-0.15907,-3.53532 0.23217,-6.98504 0.23375,-10.49958c0.08771,-0.90148 0.47624,-5.31149 0.7261,-5.80219c1.21987,-2.39574 2.19544,-1.32759 3.59182,-1.13787c3.40116,0.46209 6.65875,-1.32229 10.10347,-0.37134l0.50104,-0.02747c0,0 0.11033,0 0.26403,0.05638z" fill="#ff01dc" stroke-width="4"/><text transform="translate(154.01502,326.15576) scale(0.51298,0.51298)" font-size="40" xml:space="preserve" fill="#ffffff" fill-rule="nonzero" stroke="#ffffff" stroke-width="2" stroke-linecap="butt" stroke-linejoin="miter" stroke-miterlimit="10" stroke-dasharray="" stroke-dashoffset="0" font-family="Handwriting" font-weight="normal" text-anchor="start" style="mix-blend-mode: normal"><tspan x="0" dy="0">PLAY</tspan></text></g></g></svg>