<svg version="1.1" xmlns="http://www.w3.org/2000/svg" xmlns:xlink="http://www.w3.org/1999/xlink" width="188.40184" height="188.40184" viewBox="0,0,188.40184,188.40184"><g transform="translate(-225.79908,-85.79908)"><g data-paper-data="{&quot;isPaintingLayer&quot;:true}" fill-rule="nonzero" stroke-linecap="butt" stroke-linejoin="miter" stroke-miterlimit="10" stroke-dasharray="" stroke-dashoffset="0" style="mix-blend-mode: normal"><path d="M225.79908,180c0,-52.02573 42.17519,-94.20092 94.20092,-94.20092c52.02573,0 94.20092,42.17519 94.20092,94.20092c0,52.02573 -42.17519,94.20092 -94.20092,94.20092c-52.02573,0 -94.20092,-42.17519 -94.20092,-94.20092z" fill-opacity="0.00784" fill="#000000" stroke="none" stroke-width="0"/><path d="M368.89423,180c0,27.3104 -21.89069,49.44985 -48.89423,49.44985c-27.00354,0 -48.89423,-22.13945 -48.89423,-49.44985c0,-27.3104 21.89069,-49.44985 48.89423,-49.44985c27.00354,0 48.89423,22.13945 48.89423,49.44985z" fill="none" stroke-opacity="0.10588" stroke="#000000" stroke-width="50"/><text transform="translate(326.23846,128.36525) rotate(40.41092) scale(0.5,0.5)" font-size="40" xml:space="preserve" fill-opacity="0.51765" fill="#ffffff" fill-rule="nonzero" stroke="none" stroke-width="1" stroke-linecap="butt" stroke-linejoin="miter" stroke-miterlimit="10" stroke-dasharray="" stroke-dashoffset="0" font-family="Sans Serif" font-weight="normal" text-anchor="start" style="mix-blend-mode: normal"><tspan x="0" dy="0">rotat</tspan></text><path d="M334.39497,218.03938c1.65429,1.8744 -0.22011,3.52868 -0.22011,3.52868l-1.2984,1.14017c-3.46268,2.67838 -6.44316,5.95323 -9.8666,8.77124l1.05072,0.21758c1.06648,0.0075 2.0705,0.21738 3.02514,0.56823c2.48207,-1.08394 4.88599,-3.16438 6.78004,-4.40728c2.24684,-1.47441 4.72736,-2.5705 6.97361,-4.04584c5.9657,-3.91829 11.06997,-8.75219 16.38571,-13.43147c5.30332,-3.44627 8.91891,-7.66633 11.56822,-13.31697c1.52747,-3.25789 3.92637,-6.19482 4.25352,-9.90078c0.43666,-4.9466 -0.76131,-10.1652 -2.2642,-14.79365c-0.68037,-2.09538 -0.58219,-4.37025 -1.00529,-6.5323c-0.3429,-1.75223 -1.38625,-3.2914 -2.03224,-4.9559c0,0 -0.9043,-2.33072 1.42642,-3.23502c2.33072,-0.9043 3.23502,1.42642 3.23502,1.42642c0.72874,1.87878 1.82327,3.64412 2.2372,5.61632c0.42432,2.02166 0.2379,4.17343 0.89322,6.13244c1.74861,5.22721 3.02901,11.28763 2.48208,16.86821c-0.42619,4.34852 -2.9054,7.66935 -4.69861,11.49686c-2.9903,6.38258 -7.14019,11.24072 -13.06083,15.16828c-5.38714,4.76931 -10.60852,9.65104 -16.66823,13.63211c-2.24607,1.47561 -4.72818,2.56927 -6.97361,4.04584c-1.37443,0.9038 -2.96509,2.12918 -4.65543,3.24082c1.2141,0.9848 2.37238,2.02987 3.51779,2.93322l1.00413,0.55382c0,0 2.16213,1.25508 0.90705,3.4172c-1.25508,2.16213 -3.4172,0.90705 -3.4172,0.90705l-1.59043,-0.95227c-1.53339,-1.20956 -3.41751,-3.24582 -5.33571,-4.39306c-0.56777,0.16539 -1.13455,0.27741 -1.69655,0.32185c-1.35575,0.10717 -2.69021,-0.40131 -4.03532,-0.60196l-0.38828,-0.63652l-0.21431,0.2427l-1.8764,-1.65685c-0.90519,-0.76811 -1.15904,-2.09694 -0.54211,-3.15972c0.1167,-0.20105 0.25712,-0.37974 0.41566,-0.53462c-0.00434,-0.00548 -0.00868,-0.01099 -0.01302,-0.01654c-1.54136,-1.9683 0.42693,-3.50967 0.42693,-3.50967c3.78558,-2.96194 6.94553,-6.47087 10.66923,-9.41635l1.07254,-0.95235c0,0 1.8744,-1.65429 3.52868,0.22011z" data-paper-data="{&quot;index&quot;:null}" fill-opacity="0.57255" fill="#ffffff" stroke="none" stroke-width="0.5"/><text transform="translate(310.05629,235.46617) rotate(-139.58869) scale(0.5,0.5)" font-size="40" xml:space="preserve" data-paper-data="{&quot;index&quot;:null}" fill-opacity="0.51765" fill="#ffffff" fill-rule="nonzero" stroke="none" stroke-width="1" stroke-linecap="butt" stroke-linejoin="miter" stroke-miterlimit="10" stroke-dasharray="" stroke-dashoffset="0" font-family="Sans Serif" font-weight="normal" text-anchor="start" style="mix-blend-mode: normal"><tspan x="0" dy="0">rotat</tspan></text><path d="M301.89986,140.73139c-1.65429,-1.87439 0.22011,-3.52868 0.22011,-3.52868l1.2984,-1.14017c3.46268,-2.67838 6.44316,-5.95324 9.8666,-8.77124l-1.05072,-0.21759c-1.06648,-0.0075 -2.0705,-0.21738 -3.02514,-0.56823c-2.48206,1.08393 -4.88599,3.16439 -6.78003,4.40728c-2.24683,1.47441 -4.72737,2.57049 -6.97361,4.04583c-5.96571,3.91829 -11.06997,8.7522 -16.38571,13.43148c-5.30332,3.44627 -8.91891,7.66633 -11.56822,13.31697c-1.52747,3.25789 -3.92638,6.19482 -4.25352,9.90078c-0.43667,4.9466 0.76131,10.1652 2.2642,14.79364c0.68038,2.09538 0.5822,4.37025 1.00529,6.5323c0.3429,1.75224 1.38625,3.2914 2.03224,4.9559c0,0 0.9043,2.33071 -1.42642,3.23502c-2.33072,0.9043 -3.23501,-1.42642 -3.23501,-1.42642c-0.72874,-1.87878 -1.82328,-3.64411 -2.2372,-5.61631c-0.42433,-2.02167 -0.2379,-4.17343 -0.89322,-6.13244c-1.7486,-5.22722 -3.02901,-11.28763 -2.48208,-16.86821c0.42619,-4.34852 2.9054,-7.66935 4.6986,-11.49686c2.9903,-6.38258 7.1402,-11.24072 13.06083,-15.16828c5.38714,-4.76931 10.60852,-9.65104 16.66823,-13.63211c2.24606,-1.47561 4.72818,-2.56928 6.97361,-4.04584c1.37443,-0.90381 2.9651,-2.12918 4.65543,-3.24081c-1.2141,-0.98479 -2.37239,-2.02987 -3.5178,-2.93323l-1.00412,-0.55382c0,0 -2.16213,-1.25508 -0.90705,-3.4172c1.25507,-2.16213 3.4172,-0.90705 3.4172,-0.90705l1.59043,0.95228c1.53339,1.20956 3.41751,3.24581 5.33571,4.39306c0.56777,-0.16538 1.13454,-0.27742 1.69655,-0.32185c1.35575,-0.10718 2.69022,0.40131 4.03532,0.60196l0.38828,0.63652l0.2143,-0.2427l1.8764,1.65685c0.90519,0.76811 1.15904,2.09694 0.54211,3.15972c-0.1167,0.20104 -0.25712,0.37973 -0.41566,0.53462c0.00434,0.00548 0.00868,0.01099 0.01302,0.01654c1.54136,1.9683 -0.42693,3.50967 -0.42693,3.50967c-3.78558,2.96195 -6.94554,6.47087 -10.66923,9.41635l-1.07254,0.95235c0,0 -1.87439,1.65428 -3.52868,-0.22011z" data-paper-data="{&quot;index&quot;:null}" fill-opacity="0.57255" fill="#ffffff" stroke="none" stroke-width="0.5"/></g></g></svg>