<svg version="1.1" xmlns="http://www.w3.org/2000/svg" xmlns:xlink="http://www.w3.org/1999/xlink" width="252.5304" height="139.49015" viewBox="0,0,252.5304,139.49015"><defs><radialGradient cx="320.45833" cy="242.87499" r="5.95833" gradientUnits="userSpaceOnUse" id="color-1"><stop offset="0" stop-color="#000000"/><stop offset="1" stop-color="#0e8a56"/></radialGradient><linearGradient x1="320.45833" y1="236.91667" x2="320.45833" y2="248.83334" gradientUnits="userSpaceOnUse" id="color-2"><stop offset="0" stop-color="#845830"/><stop offset="1" stop-color="#53391e"/></linearGradient><linearGradient x1="320.33917" y1="238.74389" x2="320.33917" y2="246.84722" gradientUnits="userSpaceOnUse" id="color-3"><stop offset="0" stop-color="#845830"/><stop offset="1" stop-color="#53391e"/></linearGradient><radialGradient cx="202.45834" cy="240.54166" r="5.95833" gradientUnits="userSpaceOnUse" id="color-4"><stop offset="0" stop-color="#000000"/><stop offset="1" stop-color="#0e8a56"/></radialGradient><linearGradient x1="202.45834" y1="234.58333" x2="202.45834" y2="246.5" gradientUnits="userSpaceOnUse" id="color-5"><stop offset="0" stop-color="#845830"/><stop offset="1" stop-color="#53391e"/></linearGradient><linearGradient x1="202.33917" y1="236.41055" x2="202.33917" y2="244.51388" gradientUnits="userSpaceOnUse" id="color-6"><stop offset="0" stop-color="#845830"/><stop offset="1" stop-color="#53391e"/></linearGradient><radialGradient cx="437.79167" cy="240.20833" r="5.95833" gradientUnits="userSpaceOnUse" id="color-7"><stop offset="0" stop-color="#000000"/><stop offset="1" stop-color="#0e8a56"/></radialGradient><linearGradient x1="437.79167" y1="234.25" x2="437.79167" y2="246.16667" gradientUnits="userSpaceOnUse" id="color-8"><stop offset="0" stop-color="#845830"/><stop offset="1" stop-color="#53391e"/></linearGradient><linearGradient x1="437.6725" y1="236.07722" x2="437.6725" y2="244.18055" gradientUnits="userSpaceOnUse" id="color-9"><stop offset="0" stop-color="#845830"/><stop offset="1" stop-color="#53391e"/></linearGradient><radialGradient cx="320.45833" cy="116.20831" r="5.95833" gradientUnits="userSpaceOnUse" id="color-10"><stop offset="0" stop-color="#000000"/><stop offset="1" stop-color="#0e8a56"/></radialGradient><linearGradient x1="320.45833" y1="122.16663" x2="320.45833" y2="110.24996" gradientUnits="userSpaceOnUse" id="color-11"><stop offset="0" stop-color="#845830"/><stop offset="1" stop-color="#53391e"/></linearGradient><linearGradient x1="320.33917" y1="120.33941" x2="320.33917" y2="112.23608" gradientUnits="userSpaceOnUse" id="color-12"><stop offset="0" stop-color="#845830"/><stop offset="1" stop-color="#53391e"/></linearGradient><radialGradient cx="202.45834" cy="118.20831" r="5.95833" gradientUnits="userSpaceOnUse" id="color-13"><stop offset="0" stop-color="#000000"/><stop offset="1" stop-color="#0e8a56"/></radialGradient><linearGradient x1="202.45834" y1="124.16664" x2="202.45834" y2="112.24997" gradientUnits="userSpaceOnUse" id="color-14"><stop offset="0" stop-color="#845830"/><stop offset="1" stop-color="#53391e"/></linearGradient><linearGradient x1="202.33917" y1="122.33942" x2="202.33917" y2="114.23609" gradientUnits="userSpaceOnUse" id="color-15"><stop offset="0" stop-color="#845830"/><stop offset="1" stop-color="#53391e"/></linearGradient><radialGradient cx="438.125" cy="117.87498" r="5.95833" gradientUnits="userSpaceOnUse" id="color-16"><stop offset="0" stop-color="#000000"/><stop offset="1" stop-color="#0e8a56"/></radialGradient><linearGradient x1="438.125" y1="123.83331" x2="438.125" y2="111.91664" gradientUnits="userSpaceOnUse" id="color-17"><stop offset="0" stop-color="#845830"/><stop offset="1" stop-color="#53391e"/></linearGradient><linearGradient x1="438.00583" y1="122.00609" x2="438.00583" y2="113.90276" gradientUnits="userSpaceOnUse" id="color-18"><stop offset="0" stop-color="#845830"/><stop offset="1" stop-color="#53391e"/></linearGradient></defs><g transform="translate(-192.67955,-109.58826)"><g data-paper-data="{&quot;isPaintingLayer&quot;:true}" fill-rule="nonzero" stroke-linecap="butt" stroke-linejoin="miter" stroke-miterlimit="10" stroke-dasharray="" stroke-dashoffset="0" style="mix-blend-mode: normal"><path d="M192.67955,249.07841v-139.49015h252.5304v139.49015z" data-paper-data="{&quot;index&quot;:null}" fill="#109e64" stroke="none" stroke-width="0"/><text transform="translate(307.6165,215.83386) rotate(-64.93431) scale(0.33303,0.33303)" font-size="40" xml:space="preserve" data-paper-data="{&quot;index&quot;:null}" fill-opacity="0.08235" fill="#ffffff" fill-rule="nonzero" stroke="none" stroke-width="1" stroke-linecap="butt" stroke-linejoin="miter" stroke-miterlimit="10" stroke-dasharray="" stroke-dashoffset="0" font-family="Marker" font-weight="normal" text-anchor="start" style="mix-blend-mode: normal"><tspan x="0" dy="0">I LOVE LAYLA</tspan><tspan x="0" dy="46.150000000000006px"> POOL GAME</tspan></text><path d="M246.77788,193.94536c8.36489,0.25359 16.53,-0.50542 24.88357,-1.61228c2.62893,-0.34834 5.63734,-0.99687 8.29634,-0.82395c0.82398,0.05358 2.71086,0.67211 2.47431,-0.11901c-1.68471,-5.63426 -4.61346,-11.0244 -6.20209,-16.80293c-1.93947,-5.04284 -4.01951,-10.02363 -6.29858,-14.91925c-0.57172,-1.2281 -0.72348,-2.86133 -2.40173,-3.13609c-3.92321,-0.64231 -9.50645,1.0603 -13.01077,2.69852c-1.02509,0.47921 -2.83269,0.40028 -3.03895,1.51289c-0.15439,0.83281 0.29728,1.66835 0.48505,2.49427c1.13545,4.99423 3.18459,8.6697 6.75306,12.33187l2.10307,1.4879c0.13517,0.09189 0.26327,0.19847 0.38206,0.3197c0.96631,0.98621 0.95018,2.56904 -0.03603,3.53535c-0.41899,0.41054 -0.94567,0.64374 -1.487,0.70057l-2.80975,0.32218l-0.00834,-0.07275c-0.13007,0.03209 -0.2611,0.06098 -0.39318,0.0863c-2.0828,0.39921 -4.16192,-0.82391 -6.2578,-1.14745c-2.83061,-0.43696 -5.58791,-0.47771 -8.44224,-0.248c-2.79983,0.22533 -2.85713,0.24305 -5.42118,0.75474c-0.71836,0.14336 -2.25121,0.11514 -2.04021,0.81662c0.76376,2.53916 3.89553,5.89678 5.61976,7.83336c1.70879,1.91924 3.36428,2.61872 5.68385,3.64382zM240.87507,196.87559c-1.68913,-0.89376 -3.16999,-1.9309 -4.65089,-3.558c-1.90073,-2.08839 -4.12019,-4.84519 -5.38525,-7.40362c-0.63036,-1.27483 -1.63997,-2.56588 -1.5277,-3.98361c0.32113,-4.05509 2.75549,-4.58153 5.80241,-5.46775c4.93121,-1.43429 10.83194,-1.36855 15.84794,-0.60477c0.49294,0.07506 1.00628,0.11756 1.51672,0.15835c-2.77769,-3.4704 -4.90471,-7.40543 -5.44637,-11.96331c-0.20819,-1.75188 -0.71753,-3.62275 -0.14276,-5.29071c0.55445,-1.609 4.02835,-3.36363 5.50354,-4.05721c3.75061,-1.76339 8.15203,-2.80563 12.28163,-2.94724c1.37012,-0.04699 2.79474,-0.44425 4.11225,-0.06531c3.91226,1.12524 4.05573,2.64673 5.63951,5.78515c2.52547,5.0045 4.55063,10.32022 6.55429,15.54959c1.42975,5.20808 3.49084,10.07273 5.24256,15.1759c0.40805,1.18874 1.45728,2.34752 1.19395,3.57645c-1.41725,6.61404 -5.24643,4.42607 -9.88567,4.86832c-9.85152,0.93913 -19.34714,2.35758 -29.16067,2.30739c-0.89049,0.41149 -1.86465,0.12239 -1.86465,0.12239l-0.55345,-0.16535c-0.92236,-0.02839 -1.84797,-0.071 -2.7774,-0.12942c0,0 -1.97393,-0.12407 -2.29999,-1.90723z" data-paper-data="{&quot;index&quot;:null}" fill-opacity="0.06275" fill="#ffffff" stroke="none" stroke-width="0.5"/><g stroke-width="0"><path d="M314.5,242.87499c0,-3.29069 2.66764,-5.95833 5.95833,-5.95833c3.29069,0 5.95833,2.66764 5.95833,5.95833c0,3.29069 -2.66764,5.95833 -5.95833,5.95833c-3.29069,0 -5.95833,-2.66764 -5.95833,-5.95833z" fill="url(#color-1)" stroke="url(#color-2)"/><path d="M316.2875,242.79555c0,-2.23767 1.81399,-4.05167 4.05167,-4.05167c2.23767,0 4.05167,1.81399 4.05167,4.05167c0,2.23767 -1.81399,4.05167 -4.05167,4.05167c-2.23767,0 -4.05167,-1.81399 -4.05167,-4.05167z" fill="#053823" stroke="url(#color-3)"/></g><g stroke-width="0"><path d="M196.5,240.54166c0,-3.29069 2.66764,-5.95834 5.95833,-5.95834c3.29069,0 5.95833,2.66764 5.95833,5.95834c0,3.29069 -2.66764,5.95833 -5.95833,5.95833c-3.29069,0 -5.95833,-2.66764 -5.95833,-5.95833z" fill="url(#color-4)" stroke="url(#color-5)"/><path d="M198.2875,240.46222c0,-2.23767 1.81398,-4.05167 4.05166,-4.05167c2.23767,0 4.05167,1.81399 4.05167,4.05167c0,2.23767 -1.81399,4.05166 -4.05167,4.05166c-2.23767,0 -4.05166,-1.81398 -4.05166,-4.05166z" fill="#053823" stroke="url(#color-6)"/></g><g stroke-width="0"><path d="M431.83333,240.20833c0,-3.29069 2.66764,-5.95834 5.95833,-5.95834c3.29069,0 5.95833,2.66764 5.95833,5.95834c0,3.29069 -2.66764,5.95833 -5.95833,5.95833c-3.29069,0 -5.95833,-2.66764 -5.95833,-5.95833z" fill="url(#color-7)" stroke="url(#color-8)"/><path d="M433.62083,240.12889c0,-2.23767 1.81398,-4.05167 4.05166,-4.05167c2.23767,0 4.05167,1.81399 4.05167,4.05167c0,2.23767 -1.81399,4.05166 -4.05167,4.05166c-2.23767,0 -4.05166,-1.81398 -4.05166,-4.05166z" fill="#053823" stroke="url(#color-9)"/></g><g data-paper-data="{&quot;index&quot;:null}" stroke-width="0"><path d="M320.45833,110.24998c3.29069,0 5.95833,2.66764 5.95833,5.95833c0,3.29069 -2.66764,5.95833 -5.95833,5.95833c-3.29069,0 -5.95833,-2.66764 -5.95833,-5.95833c0,-3.29069 2.66764,-5.95833 5.95833,-5.95833z" fill="url(#color-10)" stroke="url(#color-11)"/><path d="M320.33917,112.23608c2.23768,0 4.05167,1.814 4.05167,4.05167c0,2.23768 -1.814,4.05167 -4.05167,4.05167c-2.23768,0 -4.05167,-1.814 -4.05167,-4.05167c0,-2.23768 1.814,-4.05167 4.05167,-4.05167z" fill="#053823" stroke="url(#color-12)"/></g><g data-paper-data="{&quot;index&quot;:null}" stroke-width="0"><path d="M202.45833,112.24998c3.29069,0 5.95833,2.66764 5.95833,5.95833c0,3.2907 -2.66764,5.95834 -5.95833,5.95834c-3.29069,0 -5.95833,-2.66765 -5.95833,-5.95834c0,-3.29069 2.66764,-5.95833 5.95833,-5.95833z" fill="url(#color-13)" stroke="url(#color-14)"/><path d="M202.33916,114.23609c2.23768,0 4.05167,1.81399 4.05167,4.05166c0,2.23768 -1.814,4.05167 -4.05167,4.05167c-2.23768,0 -4.05166,-1.814 -4.05166,-4.05167c0,-2.23768 1.81399,-4.05166 4.05166,-4.05166z" fill="#053823" stroke="url(#color-15)"/></g><g data-paper-data="{&quot;index&quot;:null}" stroke-width="0"><path d="M438.12499,111.91665c3.29069,0 5.95833,2.66764 5.95833,5.95833c0,3.2907 -2.66764,5.95834 -5.95833,5.95834c-3.29069,0 -5.95833,-2.66765 -5.95833,-5.95834c0,-3.29069 2.66764,-5.95833 5.95833,-5.95833z" fill="url(#color-16)" stroke="url(#color-17)"/><path d="M438.00582,113.90276c2.23768,0 4.05167,1.81399 4.05167,4.05166c0,2.23768 -1.814,4.05167 -4.05167,4.05167c-2.23768,0 -4.05166,-1.814 -4.05166,-4.05167c0,-2.23768 1.81399,-4.05166 4.05166,-4.05166z" fill="#053823" stroke="url(#color-18)"/></g></g></g></svg>