<svg version="1.1" xmlns="http://www.w3.org/2000/svg" xmlns:xlink="http://www.w3.org/1999/xlink" width="150.61753" height="41.27152" viewBox="0,0,150.61753,41.27152"><g transform="translate(-244.80642,-148.94792)"><g data-paper-data="{&quot;isPaintingLayer&quot;:true}" fill-rule="nonzero" stroke="#ffffff" stroke-linecap="butt" stroke-linejoin="miter" stroke-miterlimit="10" stroke-dasharray="" stroke-dashoffset="0" style="mix-blend-mode: normal"><path d="M364.01129,152.06193c0.29326,-0.05098 0.50377,-0.05098 0.50377,-0.05098l0.95598,0.02484c6.57247,-0.8598 12.78792,0.75353 19.27731,0.33574c2.66429,-0.17153 4.52567,-1.13729 6.85316,1.0288c0.47672,0.44366 1.21804,4.43093 1.38539,5.246c0.00302,3.17764 0.74951,6.29667 0.446,9.4931c-0.21451,2.25902 -0.66944,4.5012 -0.88995,6.75389c-0.19214,1.96317 0.90407,6.32011 -0.3853,7.95969c-1.43319,1.82246 -6.73434,1.88933 -9.0646,2.19441c-2.53062,0.33132 -4.58652,1.40352 -7.04677,1.76368c-4.54988,0.66608 -9.39077,-0.23294 -14.00636,0.38107c-24.30842,0.04584 -48.4978,1.82355 -72.80845,1.77176c-5.50721,0.73261 -10.40469,-0.07989 -15.86904,-0.35167c-4.12965,-0.20539 -8.11484,0.16584 -12.22057,-0.37565c-2.607,-0.34383 -6.75262,-0.35672 -8.78805,-1.9271c-0.34255,-0.26428 -2.02864,-3.59256 -2.30597,-4.20626c-2.32015,-5.13444 -2.28764,-11.05041 -3.24143,-16.44429c-0.01005,-3.93838 -1.61996,-10.64635 2.57402,-13.56678c2.98512,-2.07864 8.97822,-1.14668 12.58126,-1.14426c12.09136,0.00814 24.2658,0.35436 36.40423,0.35436c21.80528,0 43.91556,-0.85662 65.64537,0.7597z" data-paper-data="{&quot;index&quot;:null}" fill="#ff01dc" stroke-width="4"/><text transform="translate(256.48498,175.46288) scale(0.45524,0.45524)" font-size="40" xml:space="preserve" fill="#ffffff" fill-rule="nonzero" stroke="#ffffff" stroke-width="2" stroke-linecap="butt" stroke-linejoin="miter" stroke-miterlimit="10" stroke-dasharray="" stroke-dashoffset="0" font-family="Handwriting" font-weight="normal" text-anchor="start" style="mix-blend-mode: normal"><tspan x="0" dy="0">EXIT TO MENU</tspan></text></g></g></svg>