<svg version="1.1" xmlns="http://www.w3.org/2000/svg" xmlns:xlink="http://www.w3.org/1999/xlink" width="33.45104" height="29.95467" viewBox="0,0,33.45104,29.95467"><g transform="translate(-162.29735,-304.02266)"><g data-paper-data="{&quot;isPaintingLayer&quot;:true}" fill-rule="nonzero" stroke="none" stroke-width="0.5" stroke-linecap="butt" stroke-linejoin="miter" stroke-miterlimit="10" stroke-dasharray="" stroke-dashoffset="0" style="mix-blend-mode: normal"><path d="M190.41054,307.44395c2.53634,0.24066 2.19391,2.1603 2.49292,4.53848c0.44694,3.55476 0.08195,7.33894 0.23137,10.9249c0.10141,2.43381 0.81623,5.41931 -0.41571,7.67159c-1.89108,1.27941 -4.17042,0.94722 -6.37854,1.03796c-4.66984,0.1919 -9.42715,-0.21006 -14.10989,0.00117c-1.46326,0.066 -5.81839,0.42491 -5.7923,-0.91394c-1.71574,-5.70215 -1.73716,-12.69562 -1.73716,-18.63592c0,-0.81735 -0.40207,-4.66209 0.17369,-4.88683l0.77866,0.14648c0,0 0.69711,0.06745 1.07156,-0.43515c7.81506,-1.20259 15.87145,-0.16238 23.6854,0.55126z" data-paper-data="{&quot;noHover&quot;:false,&quot;origItem&quot;:[&quot;Path&quot;,{&quot;applyMatrix&quot;:true,&quot;selected&quot;:true,&quot;segments&quot;:[[[166.75873,306.9259],[7.81506,-1.20259],[-0.37445,0.50259],7],[[165.6891,307.35897],[0,0],[0,0],7],[[164.91112,307.21171],[0,0],[-0.57575,0.22475],7],[[164.74371,312.08885],[0,-0.81735],[0,5.9403],7],[[166.47299,330.67193],[-1.71574,-5.70215],[-0.02609,1.33886],7],[[172.25305,331.57643],[-1.46326,0.066],[4.68274,-0.21123],7],[[186.31678,331.57607],[-4.66984,0.1919],[2.20812,-0.09074],7],[[192.68298,330.54849],[-1.89108,1.27941],[1.23193,-2.25228],7],[[193.08927,322.89481],[0.10141,2.43381],[-0.14942,-3.58595],7],[[192.86131,312.00377],[0.44694,3.55476],[-0.29901,-2.37818],7],[[190.37738,307.47759],[2.53634,0.24066],[-7.81395,-0.71363],7]],&quot;closed&quot;:true}]}" fill-opacity="0.5098" fill="#000000"/><path d="M184.57735,318.92904c0,1.30151 -1.30151,1.30151 -1.30151,1.30151h-1.30151c-3.77428,0 -7.54331,-0.13015 -11.32318,-0.13015c0,0 -1.30151,0 -1.30151,-1.30151c0,-1.30151 1.30151,-1.30151 1.30151,-1.30151c3.77971,0 7.54918,0.13015 11.32318,0.13015h1.30151c0,0 1.30151,0 1.30151,1.30151z" fill-opacity="0.5098" fill="#ffffff"/><path d="M186.26932,324.91601c0,1.30151 -1.30152,1.30151 -1.30152,1.30151h-1.30151c-3.77428,0 -7.54331,-0.13015 -11.32318,-0.13015c0,0 -1.30151,0 -1.30151,-1.30151c0,-1.30151 1.30151,-1.30151 1.30151,-1.30151c3.77971,0 7.54918,0.13015 11.32318,0.13015h1.30151c0,0 1.30152,0 1.30152,1.30151z" fill-opacity="0.5098" fill="#ffffff"/><path d="M188.48189,312.81192c0,1.30151 -1.30151,1.30151 -1.30151,1.30151h-1.30151c-3.77428,0 -7.54331,-0.13015 -11.32318,-0.13015c0,0 -1.30151,0 -1.30151,-1.30151c0,-1.30151 1.30151,-1.30151 1.30151,-1.30151c3.77971,0 7.54918,0.13015 11.32318,0.13015h1.30151c0,0 1.30151,0 1.30151,1.30151z" fill-opacity="0.5098" fill="#ffffff"/><path d="M164.82329,304.94688c0.2185,-0.12498 0.41776,-0.16121 0.41776,-0.16121c8.38535,-1.5244 16.95745,-0.41965 25.36076,0.34059c2.13096,0.22203 3.22552,0.36429 3.98201,2.6451c1.16792,3.52129 0.4514,7.38953 0.62832,10.99037c0.21478,4.37146 1.45262,9.38434 -0.77471,13.36819c-3.25644,2.3203 -7.22442,1.82707 -11.07316,1.68873c-4.12983,-0.14844 -8.29522,0.29041 -12.41032,0.11773c-1.3002,-0.05456 -5.02286,0.26716 -6.03367,-0.6373c-0.52872,-0.47309 -0.48322,-1.33414 -0.72484,-2.00121c-1.76581,-5.90281 -1.81373,-13.06171 -1.81373,-19.20904c0,-3.04903 -0.70451,-5.26955 1.9584,-7.16909zM166.75873,306.9259c-0.37445,0.50259 -1.06964,0.43307 -1.06964,0.43307l-0.77798,-0.14727c-0.57575,0.22475 -0.1674,4.0598 -0.1674,4.87714c0,5.9403 0.01354,12.88094 1.72928,18.58308c-0.02609,1.33886 4.3168,0.97051 5.78006,0.9045c4.68274,-0.21123 9.39389,0.19154 14.06373,-0.00037c2.20812,-0.09074 4.47511,0.25184 6.3662,-1.02758c1.23193,-2.25228 0.5077,-5.21986 0.40629,-7.65368c-0.14942,-3.58595 0.21898,-7.33628 -0.22796,-10.89104c-0.29901,-2.37818 0.0524,-4.28552 -2.48393,-4.52618c-7.81395,-0.71363 -15.80358,-1.75429 -23.61864,-0.55169z" fill="#ffffff"/></g></g></svg>