<svg version="1.1" xmlns="http://www.w3.org/2000/svg" xmlns:xlink="http://www.w3.org/1999/xlink" width="183.99191" height="58.04618" viewBox="0,0,183.99191,58.04618"><g transform="translate(-227.47635,-152.55999)"><g data-paper-data="{&quot;isPaintingLayer&quot;:true}" fill="#ffffff" fill-rule="nonzero" stroke-linecap="butt" stroke-linejoin="miter" stroke-miterlimit="10" stroke-dasharray="" stroke-dashoffset="0" style="mix-blend-mode: normal"><text transform="translate(228.53174,192.66462) scale(1.05539,1.05539)" font-size="40" xml:space="preserve" fill="#ffffff" fill-rule="nonzero" stroke="#ffffff" stroke-width="2" stroke-linecap="butt" stroke-linejoin="miter" stroke-miterlimit="10" stroke-dasharray="" stroke-dashoffset="0" font-family="Handwriting" font-weight="normal" text-anchor="start" style="mix-blend-mode: normal"><tspan x="0" dy="0">MENU</tspan></text><g stroke="none" stroke-width="0.5"><path d="M397.68701,190.5891c0,1.91406 -1.91406,1.91406 -1.91406,1.91406l-1.99028,-0.02472c-0.86782,0.26345 -1.69654,0.79034 -2.60347,0.79034c-0.90693,0 -1.70888,-0.64124 -2.60347,-0.79034c-1.48651,-0.24775 -3.02845,0.21851 -4.52102,0.01037c-2.61554,-0.36473 -5.15776,-1.1646 -7.72898,-1.54162c-3.79145,-0.55596 -8.10888,0.02472 -11.9434,0.02472c0,0 -1.91406,0 -1.91406,-1.91406c0,-1.91406 1.91406,-1.91406 1.91406,-1.91406c4.0547,0 8.53938,-0.53564 12.5566,0.02472c2.52215,0.35181 5.02065,1.14522 7.58352,1.52088c1.53905,0.22559 3.13215,-0.24535 4.66648,0.01037c0.69827,0.11638 1.28237,0.74091 1.99028,0.74091c0.7079,0 1.32685,-0.49394 1.99028,-0.74091l2.60347,-0.02472c0,0 1.91406,0 1.91406,1.91406z"/><path d="M411.46826,180.63598c0,1.91406 -1.91406,1.91406 -1.91406,1.91406l-1.99028,-0.02471c-0.86782,0.26345 -1.69654,0.79034 -2.60347,0.79034c-0.90693,0 -1.70888,-0.64124 -2.60347,-0.79034c-1.48651,-0.24775 -3.02845,0.21851 -4.52102,0.01037c-2.61554,-0.36473 -5.15776,-1.1646 -7.72898,-1.54162c-3.79145,-0.55595 -8.10888,0.02471 -11.9434,0.02471c0,0 -1.91406,0 -1.91406,-1.91406c0,-1.91406 1.91406,-1.91406 1.91406,-1.91406c4.0547,0 8.53938,-0.53564 12.5566,0.02471c2.52215,0.35181 5.02065,1.14522 7.58352,1.52088c1.53905,0.22559 3.13215,-0.24535 4.66648,0.01037c0.69827,0.11638 1.28237,0.74091 1.99028,0.74091c0.7079,0 1.32685,-0.49394 1.99028,-0.74091l2.60347,-0.02471c0,0 1.91406,0 1.91406,1.91406z"/><path d="M397.68701,169.91723c0,1.91406 -1.91406,1.91406 -1.91406,1.91406l-1.99028,-0.02471c-0.86782,0.26345 -1.69654,0.79034 -2.60347,0.79034c-0.90693,0 -1.70888,-0.64124 -2.60347,-0.79034c-1.48651,-0.24775 -3.02845,0.21851 -4.52102,0.01037c-2.61554,-0.36473 -5.15776,-1.1646 -7.72898,-1.54162c-3.79145,-0.55595 -8.10888,0.02471 -11.9434,0.02471c0,0 -1.91406,0 -1.91406,-1.91406c0,-1.91406 1.91406,-1.91406 1.91406,-1.91406c4.0547,0 8.53938,-0.53564 12.5566,0.02471c2.52215,0.35181 5.02065,1.14522 7.58352,1.52088c1.53905,0.22559 3.13215,-0.24535 4.66648,0.01037c0.69827,0.11638 1.28237,0.74091 1.99028,0.74091c0.7079,0 1.32685,-0.49394 1.99028,-0.74091l2.60347,-0.02471c0,0 1.91406,0 1.91406,1.91406z"/></g></g></g></svg>