<svg version="1.1" xmlns="http://www.w3.org/2000/svg" xmlns:xlink="http://www.w3.org/1999/xlink" width="181.71824" height="65.01905" viewBox="0,0,181.71824,65.01905"><g transform="translate(-84.40457,-290.19129)"><g data-paper-data="{&quot;isPaintingLayer&quot;:true}" fill="#ffffff" fill-rule="nonzero" stroke-linecap="butt" stroke-linejoin="miter" stroke-miterlimit="10" stroke-dasharray="" stroke-dashoffset="0" style="mix-blend-mode: normal"><text transform="translate(85.58673,335.11354) scale(1.18216,1.18216)" font-size="40" xml:space="preserve" fill="#ffffff" fill-rule="nonzero" stroke="#ffffff" stroke-width="2" stroke-linecap="butt" stroke-linejoin="miter" stroke-miterlimit="10" stroke-dasharray="" stroke-dashoffset="0" font-family="Handwriting" font-weight="normal" text-anchor="start" style="mix-blend-mode: normal"><tspan x="0" dy="0">SHOP</tspan></text><path d="M254.58054,302.25953c-0.84643,-0.84252 -1.6689,-1.78799 -2.7884,-2.27845c-1.28343,-0.56228 -4.39698,-1.17434 -5.80319,-0.60843c-0.40969,0.16487 -1.0892,1.30339 -1.22579,1.48148c-2.12856,2.77509 -2.97647,6.1981 -3.61749,9.59802l0.47812,-0.10625l0.2269,-0.05673l0.16284,-0.05428l0.02064,-0.01032l0.01308,-0.02289l0.0654,-0.01635l0.05849,-0.02925l0.43861,-0.09747l0.26884,-0.16131l0.08904,-0.15582l0.29256,-0.07314l0.25859,-0.15515l0.17314,0.04722l0.26148,-0.06537l0.07492,-0.03746l0.01308,-0.02289l0.0654,-0.01635l0.05849,-0.02925l0.52643,-0.11698l0.02867,-0.00717l0.05849,-0.02925l0.52643,-0.11698l0.02867,-0.00717l0.05849,-0.02925l0.1649,-0.03665l0.14252,-0.09069l0.46019,-0.1534l0.37616,-0.02894l0.06974,-0.01744l0.32108,-0.10702l0.37616,-0.02894l0.36601,-0.0915h0.90908l0.10172,-0.0226l0.52317,-0.13079h0.0654l0.0658,-0.01462l0.02193,0.01462h0.32492l0.24584,-0.06146l0.37468,-0.12489l0.37616,-0.02894l0.36601,-0.0915h1.99415l0.36601,0.0915l0.37616,0.02894l0.09887,0.03296h1.61329l0.22678,0.0567l0.2335,-0.01112l0.5391,0.10782h0.22779l0.16388,0.04097l0.16803,-0.01738l1.07377,0.1534l0.06176,0.02516l0.06661,-0.00317l0.5391,0.10782h0.37805c-0.63008,-2.76263 -2.14539,-4.66668 -4.59028,-6.42162zM238.69147,310.81819c0.73476,-4.03302 1.67332,-8.10373 4.21402,-11.39838c0.68568,-0.88916 1.02666,-1.70547 2.14893,-2.20004c1.2488,-0.55033 2.98052,-0.22859 4.2747,-0.09027c1.71161,0.18293 1.84782,0.02142 3.42099,0.70901c1.34423,0.58753 2.33386,1.61154 3.34746,2.63023c3.01187,2.13992 4.80689,4.71798 5.47203,8.23607l0.21211,0.05303l0.30679,-0.0767h0.0654l0.0658,-0.01462l0.02193,0.01462h1.0743l0.02193,-0.01462l0.0658,0.01462h0.0654l0.52317,0.13079l0.52643,0.11698l0.05849,0.02925l0.0654,0.01635l0.01308,0.02289l0.16983,0.08491l0.9184,0.7872l0.00514,0.09253l0.08046,0.04598l0.29337,1.17348v3.98831l-0.0915,0.36601l-0.02894,0.37616l-0.03296,0.09888v0.69291l-0.07007,0.2803v0.28893l-0.08332,0.33329v0.63145l-0.0567,0.22678l0.01112,0.23349l-0.26121,1.30608v0.84138l-0.04758,0.1903l0.01564,0.19553l-0.30679,1.84076l-0.01549,0.03563l0.00185,0.03881l-0.10782,0.5391v0.68798l-0.0567,0.22678l0.01112,0.23349l-0.10782,0.5391v1.30157l-0.0915,0.36601l-0.02894,0.37616l-0.10719,0.32157l-0.12474,0.6237l-0.06349,0.13403l-0.01137,0.14787l-0.12489,0.37468l-0.13154,0.52614l-0.12163,0.22806l-0.05607,0.25231l-0.01392,0.02784l0.04322,0.15848l-0.15515,0.25859l-0.07314,0.29256l-0.15582,0.08904l-0.23822,0.39703l-0.30679,0.30679l-1.03722,0.62233l-0.2637,-0.07192l-0.22743,0.15162l-0.2629,-0.05842l-0.01803,0.01613l-0.30068,-0.02313l-0.29438,0.06542l-0.14933,-0.09955l-0.46165,-0.03551l-0.09888,-0.03296h-0.99971l-0.36601,-0.0915l-0.37616,-0.02894l-0.09887,-0.03296h-0.07933l-0.22678,-0.05669l-0.23349,0.01112l-1.30608,-0.26121h-1.30157l-0.2803,-0.07008h-0.28892l-0.55941,-0.13985l-0.48434,-0.09687h-0.38119l-0.2803,-0.07008h-0.28893l-0.33329,-0.08332h-0.63146l-0.22678,-0.0567l-0.2335,0.01112l-1.49685,-0.29937l-0.88305,-0.14717l-0.01628,-0.00708l-0.01772,0.00116l-1.68736,-0.30679l-0.01929,-0.00873l-0.02115,0.00101l-0.5391,-0.10782h-0.68798l-0.2803,-0.07007h-0.28892l-0.33329,-0.08332h-1.70523l-0.2803,-0.07008h-0.28893l-0.33329,-0.08332h-0.93825l-0.36601,-0.0915l-0.37616,-0.02894l-0.09888,-0.03296h-1.76669l-1.17348,-0.29337l-0.04598,-0.08046l-0.09253,-0.00514l-0.7872,-0.9184l-0.1534,-0.30679l-0.03665,-0.1649l-0.09069,-0.14251l-0.1534,-0.46019l-0.02894,-0.37616l-0.0915,-0.36601v-0.22779l-0.10782,-0.5391l0.00185,-0.03881l-0.01549,-0.03563l-0.1534,-0.92038l0.01564,-0.19553l-0.04758,-0.1903v-4.2951l0.07008,-0.2803v-0.28892l0.08332,-0.33329v-0.78511l-0.01462,-0.02193l0.01462,-0.0658v-0.0654l0.13079,-0.52317l0.11698,-0.52643l0.02925,-0.05849l0.01635,-0.0654l0.02289,-0.01308l0.01032,-0.02064l0.07215,-0.21645l0.0901,-0.36042l0.12475,-1.24752v-0.49653c0,-0.40003 0.10008,-0.77669 0.27657,-1.1063l0.0168,-0.06719l0.03094,-0.01768c0.33292,-0.5641 0.8951,-0.97679 1.55835,-1.10988l0.03027,-0.54491l0.46851,-0.40158c-0.19134,-0.37886 -0.11526,-0.79729 -0.11526,-0.79729zM241.09031,315.59222l0.01726,0.11792l-0.1534,1.53396l-0.05843,0.16276v0.17293l-0.1534,0.61359l-0.04331,0.0812l-0.00706,0.09175l-0.1534,0.46019l-0.03296,0.05179v0.74l-0.07008,0.2803v0.28893l-0.08332,0.33329v3.81193l0.11524,0.69145l0.01407,0.07036h0.28486l0.36601,0.0915l0.37616,0.02894l0.09887,0.03296h0.84631l0.2803,0.07008h0.28893l0.33329,0.08332h1.70523l0.2803,0.07007h0.28893l0.33329,0.08332h0.63145l0.22678,0.0567l0.23349,-0.01112l0.7468,0.14936l1.65013,0.30002l0.90336,0.15056l0.03563,0.01549l0.03881,-0.00185l1.30608,0.26122h0.68798l0.2803,0.07008h0.28893l0.33329,0.08332h0.32466l0.22678,0.05669l0.23349,-0.01112l0.76698,0.1534l0.05172,0.0245h0.05723l0.33329,0.08332h1.24504l0.22678,0.05669l0.23349,-0.01112l1.30608,0.26121h0.22779l0.36601,0.0915l0.37616,0.02894l0.09887,0.03296h0.53528l0.03245,-0.09735l0.12474,-0.6237l0.06349,-0.13403l0.01138,-0.14787l0.03296,-0.09887v-1.1531l0.0567,-0.22678l-0.01112,-0.23349l0.10782,-0.5391v-0.68798l0.0567,-0.22678l-0.01112,-0.2335l0.14598,-0.72987l0.26864,-1.61183v-0.87953l0.05669,-0.22678l-0.01112,-0.23349l0.26122,-1.30608v-0.68798l0.07007,-0.2803v-0.28892l0.08332,-0.33329v-0.78485l0.0915,-0.36601l0.02894,-0.37616l0.03296,-0.09887v-1.35342l-0.12882,-0.02863l-0.00337,0.00112l-0.05779,0.00445l-0.04401,0.04592h-0.55293l-0.5513,0.04241l-0.0474,-0.04241h-0.05797l-0.33329,-0.08332h-1.09164l-0.22678,-0.0567l-0.2335,0.01112l-0.7031,-0.14062l-0.84417,-0.12059h-0.2934l-0.22678,-0.0567l-0.2335,0.01112l-0.5391,-0.10782h-1.76176l-0.36601,-0.0915l-0.37616,-0.02894l-0.09888,-0.03296h-1.23243l-0.09888,0.03296l-0.09175,0.00706l-0.0812,0.04331l-0.61359,0.1534h-0.28892l-0.2803,0.07008h-0.44889l-0.10172,0.0226l-0.52317,0.13079h-0.0654l-0.0658,0.01462l-0.02193,-0.01462h-0.69318l-0.09887,0.03296l-0.37616,0.02894l-0.06974,0.01744l-0.16284,0.05428l-0.02064,0.01032l-0.01308,0.02289l-0.0654,0.01635l-0.05849,0.02925l-0.52643,0.11698l-0.02867,0.00717l-0.05849,0.02925l-0.52643,0.11698l-0.02867,0.00717l-0.22832,0.11416l-0.01308,0.02289l-0.0654,0.01635l-0.05849,0.02925l-0.52643,0.11698l-0.02698,0.00675l-0.21357,0.18306l-0.16983,0.08491l-0.01308,0.02289l-0.0654,0.01635l-0.05849,0.02925l-0.11377,0.02528l-0.0067,0.00402l-0.00512,-0.00139l-0.40084,0.08907l-0.02867,0.00717l-0.05849,0.02925l-0.1649,0.03665l-0.14252,0.09069l-0.46019,0.1534l-0.30024,0.02309l-0.48255,0.24127l-0.01308,0.02289l-0.0654,0.01635l-0.05849,0.02925l-0.52643,0.11698l-0.02867,0.00717l-0.36528,0.18264l-0.23771,0.05283z" stroke="none" stroke-width="0.5"/></g></g></svg>