<svg version="1.1" xmlns="http://www.w3.org/2000/svg" xmlns:xlink="http://www.w3.org/1999/xlink" width="71.90625" height="78.30821" viewBox="0,0,71.90625,78.30821"><g transform="translate(-144.48322,-282.34589)"><g data-paper-data="{&quot;isPaintingLayer&quot;:true}" fill-rule="nonzero" stroke-linecap="butt" stroke-linejoin="miter" stroke-miterlimit="10" stroke-dasharray="" stroke-dashoffset="0" style="mix-blend-mode: normal"><g><text transform="translate(145.48322,351.65411) scale(0.5,0.5)" font-size="40" xml:space="preserve" fill-opacity="0.16863" fill="#ffffff" fill-rule="nonzero" stroke-opacity="0.56471" stroke="#ffffff" stroke-width="4" stroke-linecap="butt" stroke-linejoin="miter" stroke-miterlimit="10" stroke-dasharray="" stroke-dashoffset="0" font-family="Handwriting" font-weight="normal" text-anchor="start" style="mix-blend-mode: normal"><tspan x="0" dy="0">loading...</tspan></text><path d="M175.75099,302.25521c-1.76776,1.76777 -3.53553,0 -3.53553,0l-1.67271,-2.22544c-0.77839,-3.52152 -1.89427,-6.84023 -3.46409,-10.0946c-0.04865,-0.10087 -0.10677,-0.21601 -0.16961,-0.34057c-0.05078,0.24856 -0.09954,0.47918 -0.13191,0.66839c-0.63972,3.73919 -1.11804,7.4708 -2.03523,11.16413c0,0 -0.60634,2.42536 -3.0317,1.81902c-2.42536,-0.60634 -1.81902,-3.0317 -1.81902,-3.0317c0.64769,-2.5716 1.17125,-5.22784 1.63144,-7.83587c0.32241,-1.82722 0.21827,-4.30062 1.0914,-6.02257c0.73063,-1.44091 1.2022,-3.64568 2.78565,-3.96617c1.68036,-0.3401 3.20207,1.37094 4.49948,2.49166c0.8259,0.71343 1.15674,1.85404 1.65526,2.8249c1.82338,3.55097 3.00364,7.36246 3.86925,11.23873l0.32729,-0.22544c0,0 1.76776,1.76777 0,3.53553z" fill-opacity="0.2902" fill="#ffffff" stroke="none" stroke-width="0.5"/><path d="M170.48322,310.15411c0,-1.38071 1.11929,-2.5 2.5,-2.5c1.38071,0 2.5,1.11929 2.5,2.5c0,1.38071 -1.11929,2.5 -2.5,2.5c-1.38071,0 -2.5,-1.11929 -2.5,-2.5z" fill-opacity="0.2902" fill="#ffffff" stroke="none" stroke-width="0.5"/><path d="M186.81655,310.82078c0,-1.38071 1.11929,-2.5 2.5,-2.5c1.38071,0 2.5,1.11929 2.5,2.5c0,1.38071 -1.11929,2.5 -2.5,2.5c-1.38071,0 -2.5,-1.11929 -2.5,-2.5z" fill-opacity="0.2902" fill="#ffffff" stroke="none" stroke-width="0.5"/><path d="M202.64989,304.98744c-2.5,0 -2.5,-2.5 -2.5,-2.5l0.15918,-0.78886c-0.30667,-0.81778 -0.73985,-1.75206 -1.15249,-2.74041c-0.18937,0.40038 -0.37489,0.80381 -0.5555,1.21128c0,0 -1.01534,2.28453 -3.29987,1.26918c-2.28453,-1.01535 -1.26918,-3.29987 -1.26918,-3.29987c1.22742,-2.75476 2.66098,-5.32679 4.00838,-8.02013l0.95558,-2.2297c0.36946,-0.91919 1.26922,-1.56815 2.32056,-1.56815c1.38071,0 2.5,1.11929 2.5,2.5c0,0.09542 -0.00534,0.18958 -0.01575,0.28222l-0.32999,3.29987l-0.34719,-0.03472c0.42262,2.48774 0.85441,4.87434 1.86708,7.57481l0.15918,2.54448c0,0 0,2.5 -2.5,2.5z" fill-opacity="0.2902" fill="#ffffff" stroke="none" stroke-width="0.5"/><path d="M145.27818,313.94468c-0.79057,-2.37171 1.58114,-3.16228 1.58114,-3.16228l1.79057,-0.46162c4.10485,0.00629 7.64496,0.75096 11.60634,1.74131c0,0 2.42536,0.60634 1.81902,3.0317c-0.60634,2.42535 -3.03169,1.81901 -3.03169,1.81901c-3.57286,-0.89322 -6.69493,-1.5983 -10.39366,-1.59202l-0.20943,0.20504c0,0 -2.37171,0.79057 -3.16228,-1.58114z" fill-opacity="0.2902" fill="#ffffff" stroke="none" stroke-width="0.5"/><path d="M145.48322,322.48744c0,-2.5 2.5,-2.5 2.5,-2.5c1.88889,0 4.11111,0 6,0c0,0 2.5,0 2.5,2.5c0,2.5 -2.5,2.5 -2.5,2.5c-1.88889,0 -3.77778,0 -5.66667,0h-0.33333c0,0 -2.5,0 -2.5,-2.5z" fill-opacity="0.2902" fill="#ffffff" stroke="none" stroke-width="0.5"/><path d="M210.14989,313.48744c0,2.5 -2.5,2.5 -2.5,2.5l-0.97675,-0.01931c-2.72704,-0.36339 -5.00844,0.033 -7.74717,0.33735c0,0 -2.48471,0.27607 -2.76079,-2.20863c-0.27608,-2.48471 2.20863,-2.76079 2.20863,-2.76079c3.13133,-0.34786 5.78013,-0.70122 8.9195,-0.32932l0.35658,-0.01931c0,0 2.5,0 2.5,2.5z" fill-opacity="0.2902" fill="#ffffff" stroke="none" stroke-width="0.5"/><path d="M207.81655,321.15411c0,2.5 -2.5,2.5 -2.5,2.5l-1.273,-0.07464c-1.89823,-0.47738 -3.77116,-1.06642 -5.6048,-1.7512c0,0 -2.34083,-0.87781 -1.46302,-3.21863c0.87781,-2.34082 3.21863,-1.46302 3.21863,-1.46302c1.6543,0.62319 3.3462,1.15604 5.06187,1.58213l0.06033,-0.07465c0,0 2.5,0 2.5,2.5z" fill-opacity="0.2902" fill="#ffffff" stroke="none" stroke-width="0.5"/></g></g></g></svg>