<svg version="1.1" xmlns="http://www.w3.org/2000/svg" xmlns:xlink="http://www.w3.org/1999/xlink" width="48.32341" height="37.81664" viewBox="0,0,48.32341,37.81664"><g transform="translate(-155.18462,-299.62325)"><g data-paper-data="{&quot;isPaintingLayer&quot;:true}" fill-rule="nonzero" stroke-linecap="butt" stroke-linejoin="miter" stroke-miterlimit="10" stroke-dasharray="" stroke-dashoffset="0" style="mix-blend-mode: normal"><path d="M166.05832,307.93868c6.55495,-1.18108 13.22466,-0.55512 19.80236,-0.55512c3.66164,0 7.33414,-0.25299 10.98158,-0.25894c1.08688,-0.00178 2.89475,-0.68278 3.79522,0.83613c1.26514,2.13402 0.77951,7.03569 0.77647,9.91356c-0.28772,3.94143 -0.27791,8.26436 -0.97779,12.01621c-0.08366,0.44845 -0.59227,2.88049 -0.69561,3.07361c-0.614,1.14751 -1.86456,1.15693 -2.65098,1.40817c-1.23852,0.39568 -2.44068,0.12442 -3.68641,0.2745c-1.64836,0.1986 -3.12571,0.79231 -4.787,0.25697c-7.33346,0.03785 -14.63037,-1.26117 -21.96316,-1.29466c-1.39233,-0.44867 -2.85261,0.20826 -4.22512,-0.27845c-0.74215,-0.26318 -1.36233,-1.04666 -2.12571,-1.28877c-0.70294,-0.22293 -2.30206,-0.27179 -2.7344,-1.6035c-0.38895,-1.19808 -0.05827,-4.38179 -0.11623,-5.81632c-0.06652,-1.64608 -0.20375,-3.2845 -0.26846,-4.93522c-0.09156,-2.33571 0.13363,-4.61484 0.13454,-6.93682c0.05048,-0.59559 0.27411,-3.50918 0.41791,-3.83337c0.7021,-1.5828 1.2636,-0.8771 2.0673,-0.75176c1.95756,0.30529 3.8325,-0.87361 5.81513,-0.24534l0.28838,-0.01815c0,0 0.0635,0 0.15196,0.03725z" fill="#39a447" stroke="#ffffff" stroke-width="4"/><path d="M171.85761,319.52945c1.51231,1.90301 1.7951,4.26436 2.86769,6.38066c0.34824,0.6871 0.26636,1.82773 0.99159,2.08737c0.03529,0.01264 0.13632,-0.48907 0.18885,-0.65015c0.26418,-0.81001 0.54992,-1.61294 0.80827,-2.42482c0.49762,-1.5638 0.94596,-3.1429 1.43361,-4.70984c1.86143,-5.98109 4.51106,-11.84156 6.60921,-17.77194c0.69418,-1.96207 2.83961,-3.77985 5.14635,-2.24202c0.88027,0.58684 1.21191,1.80138 1.41939,2.83878c0.12653,0.63265 -0.50953,1.18656 -0.72365,1.79517c-1.09903,3.12382 -2.03705,6.34789 -3.25527,9.42397c-1.97147,4.97809 -3.86179,9.89382 -5.44082,15.0176c-0.53004,1.71993 -0.71878,5.60755 -2.33394,6.99197c-5.62449,4.82099 -10.1487,-6.53595 -11.45581,-10.13268c-0.14596,-0.40164 -1.1008,-2.1531 -1.61627,-3.2041c-0.09689,-0.16608 -0.17903,-0.34184 -0.24459,-0.52546c-0.1182,-0.33103 -0.18257,-0.68763 -0.18257,-1.05927c0,-1.73933 1.41001,-3.14935 3.14935,-3.14935c0.31187,-0.24146 0.8844,-0.00429 1.41855,0.3368c0.34689,0.17531 0.65693,0.41289 0.91545,0.69807c0.15196,0.13521 0.26126,0.24469 0.30461,0.29923z" fill="#ffffff" stroke="none" stroke-width="0.5"/></g></g></svg>