<svg version="1.1" xmlns="http://www.w3.org/2000/svg" xmlns:xlink="http://www.w3.org/1999/xlink" width="164.2545" height="41.48461" viewBox="0,0,164.2545,41.48461"><g transform="translate(-237.91765,-158.73754)"><g data-paper-data="{&quot;isPaintingLayer&quot;:true}" fill-rule="nonzero" stroke="#ffffff" stroke-linecap="butt" stroke-linejoin="miter" stroke-miterlimit="10" stroke-dasharray="" stroke-dashoffset="0" style="mix-blend-mode: normal"><path d="M271.99705,162.06197c23.70063,-1.61632 47.81622,-0.7597 71.59916,-0.7597c13.23933,0 26.51795,-0.34622 39.70595,-0.35436c3.92982,-0.00242 10.46647,-0.93438 13.72233,1.14426c4.57435,2.92043 2.81843,9.6284 2.80747,13.56678c-1.0403,5.39388 -1.00484,11.30985 -3.53542,16.44429c-0.30248,0.6137 -2.14149,3.94198 -2.51511,4.20626c-2.22003,1.57038 -6.74165,1.58327 -9.58509,1.9271c-4.4781,0.54149 -8.82474,0.17026 -13.32893,0.37565c-5.95994,0.27178 -11.30161,1.08428 -17.3083,0.35167c-26.51553,0.05179 -52.8988,-1.72592 -79.4119,-1.77176c-5.0342,-0.61401 -10.31414,0.28501 -15.27668,-0.38107c-2.68338,-0.36016 -4.92574,-1.43236 -7.68588,-1.76368c-2.54161,-0.30508 -8.32355,-0.37195 -9.88673,-2.19441c-1.40632,-1.63958 -0.21068,-5.99652 -0.42025,-7.95969c-0.2405,-2.25269 -0.73669,-4.49487 -0.97066,-6.75389c-0.33104,-3.19643 0.48316,-6.31546 0.48645,-9.4931c0.18253,-0.81507 0.99108,-4.80234 1.51104,-5.246c2.53859,-2.16609 4.56879,-1.20033 7.47472,-1.0288c7.07795,0.41779 13.85712,-1.19554 21.02569,-0.33574l1.04268,-0.02484c0,0 0.2296,0 0.54946,0.05098z" fill="#ff01dc" stroke-width="4"/><text transform="translate(250.82938,185.6963) scale(0.45524,0.45524)" font-size="40" xml:space="preserve" fill="#ffffff" fill-rule="nonzero" stroke="#ffffff" stroke-width="2" stroke-linecap="butt" stroke-linejoin="miter" stroke-miterlimit="10" stroke-dasharray="" stroke-dashoffset="0" font-family="Handwriting" font-weight="normal" text-anchor="start" style="mix-blend-mode: normal"><tspan x="0" dy="0">BACK TO GAME</tspan></text></g></g></svg>